<svg width="512" height="456" viewBox="0 0 512 456" fill="none" xmlns="http://www.w3.org/2000/svg">
<rect width="511.999" height="447.547" rx="90" fill="#2978FF"/>
<g filter="url(#filter0_i_149_251)">
<path d="M260.43 203.801L215.775 363.643H177.99L147.991 249.83L116.618 363.643L79.0617 363.872L36.0097 203.801H70.3597L98.5267 327.919L131.045 203.801H166.769L197.455 327.232L225.851 203.801H260.43ZM292.923 364.315C288.571 364.315 284.763 363.547 281.499 362.011C278.235 360.475 275.675 358.395 273.819 355.771C272.027 353.147 271.003 350.235 270.747 347.035H275.259C275.771 350.555 277.403 353.691 280.155 356.443C282.971 359.195 287.227 360.571 292.923 360.571C296.251 360.571 299.131 359.963 301.563 358.747C304.059 357.531 305.979 355.867 307.323 353.755C308.667 351.643 309.339 349.307 309.339 346.747C309.339 343.483 308.539 340.891 306.939 338.971C305.403 337.051 303.451 335.611 301.083 334.651C298.779 333.691 295.643 332.667 291.675 331.579C287.323 330.427 283.803 329.275 281.115 328.123C278.491 326.971 276.251 325.211 274.395 322.843C272.603 320.411 271.707 317.115 271.707 312.955C271.707 309.755 272.539 306.843 274.203 304.219C275.931 301.531 278.363 299.419 281.499 297.883C284.635 296.347 288.251 295.579 292.347 295.579C298.299 295.579 303.099 297.051 306.747 299.995C310.395 302.939 312.571 306.555 313.275 310.843H308.667C308.283 309.115 307.419 307.355 306.075 305.563C304.795 303.771 302.939 302.299 300.507 301.147C298.139 299.931 295.291 299.323 291.963 299.323C287.483 299.323 283.707 300.571 280.635 303.067C277.563 305.499 276.027 308.763 276.027 312.859C276.027 316.123 276.827 318.747 278.427 320.731C280.027 322.651 281.979 324.123 284.283 325.147C286.651 326.107 289.819 327.099 293.786 328.123C298.203 329.339 301.691 330.523 304.251 331.675C306.875 332.763 309.083 334.523 310.875 336.955C312.731 339.323 313.659 342.555 313.659 346.651C313.659 349.659 312.859 352.507 311.259 355.195C309.659 357.883 307.291 360.091 304.155 361.819C301.083 363.483 297.339 364.315 292.923 364.315ZM330.911 299.899V328.027H357.791V331.675H330.911V359.995H360.671V363.643H326.591V296.251H360.671V299.899H330.911ZM410.131 363.643L392.851 334.939H392.467H378.067V363.643H373.747V296.251H392.275C399.763 296.251 405.363 298.011 409.075 301.531C412.851 305.051 414.739 309.723 414.739 315.547C414.739 320.731 413.267 325.019 410.323 328.411C407.443 331.739 403.219 333.787 397.651 334.555L415.315 363.643H410.131ZM378.067 331.291H392.467C398.419 331.291 402.867 329.851 405.811 326.971C408.755 324.091 410.227 320.283 410.227 315.547C410.227 305.243 404.243 300.091 392.275 300.091H378.067V331.291ZM478.44 296.251L452.712 363.643H447.911L422.28 296.251H426.984L450.312 358.555L473.832 296.251H478.44Z" fill="white"/>
</g>
<defs>
<filter id="filter0_i_149_251" x="36.0098" y="203.801" width="442.43" height="163.514" filterUnits="userSpaceOnUse" color-interpolation-filters="sRGB">
<feFlood flood-opacity="0" result="BackgroundImageFix"/>
<feBlend mode="normal" in="SourceGraphic" in2="BackgroundImageFix" result="shape"/>
<feColorMatrix in="SourceAlpha" type="matrix" values="0 0 0 0 0 0 0 0 0 0 0 0 0 0 0 0 0 0 127 0" result="hardAlpha"/>
<feOffset dy="3"/>
<feGaussianBlur stdDeviation="3.5"/>
<feComposite in2="hardAlpha" operator="arithmetic" k2="-1" k3="1"/>
<feColorMatrix type="matrix" values="0 0 0 0 0.921569 0 0 0 0 0.921569 0 0 0 0 0.921569 0 0 0 1 0"/>
<feBlend mode="normal" in2="shape" result="effect1_innerShadow_149_251"/>
</filter>
</defs>
</svg>
